<svg width="1086" height="720" viewBox="0 0 1086 720" fill="none" xmlns="http://www.w3.org/2000/svg">
<g id="Pokedex">
<g id="screens">
<path id="seconday_screen" fill-rule="evenodd" clip-rule="evenodd" d="M148.9 594.5H305.7C309.6 594.5 312.7 597.7 312.7 601.5V647.3C312.7 651.2 309.5 654.3 305.7 654.3H148.9C145 654.3 141.9 651.1 141.9 647.3V601.5C141.9 597.7 145 594.5 148.9 594.5Z" fill="#39B348"/>
<path id="tertiary_screen" fill-rule="evenodd" clip-rule="evenodd" d="M672.4 228.8H975.9C1003.9 228.8 1012.7 238.3 1012.7 256.2V357.2C1012.7 375 1004.9 386.2 977 386.2H672C644 386.2 634.3 375.1 634.3 357.2V256.2C634.3 238.3 644.4 228.8 672.4 228.8Z" fill="#2C2C2C"/>
<path id="small_screen_two" fill-rule="evenodd" clip-rule="evenodd" d="M868.7 623.6H978C979.9 623.6 981.4 625.1 981.4 627V656.2C981.4 658.1 979.9 659.6 978 659.6H868.7C867.8 659.6 866.9 659.2 866.3 658.6C865.7 658 865.3 657.1 865.3 656.2V627C865.3 625.2 866.8 623.6 868.7 623.6Z" fill="#2C2C2C"/>
<path id="small_screen_one" fill-rule="evenodd" clip-rule="evenodd" d="M669.3 623.6H778.6C780.5 623.6 782 625.1 782 627V656.2C782 658.1 780.5 659.6 778.6 659.6H669.3C667.4 659.6 665.9 658.1 665.9 656.2V627C666 625.2 667.5 623.6 669.3 623.6Z" fill="#2C2C2C"/>
<path id="main_screen" fill-rule="evenodd" clip-rule="evenodd" d="M151 259.7H373.7C389.2 259.7 401.9 272.4 401.9 287.9V420.8C401.9 436.3 389.2 449 373.7 449H151C135.5 449 122.8 436.3 122.8 420.8V287.8C122.8 272.4 135.5 259.7 151 259.7Z" fill="#CCFFFE"/>
</g>
<g id="glows">
<g id="secondary_screen_glow">
<path id="_317603240" fill-rule="evenodd" clip-rule="evenodd" d="M266.1 594.5H252.4L191 654.4H206.6L266.1 594.5Z" fill="#9AD8A2"/>
<path id="_317603336" fill-rule="evenodd" clip-rule="evenodd" d="M298.4 594.5H271.1L210.7 654.4H239.8L298.4 594.5Z" fill="#92D59B"/>
</g>
<g id="small_screen_two_glow">
<path id="_317599616" fill-rule="evenodd" clip-rule="evenodd" d="M885.7 659.6H872L907.8 623.6H922.1L885.7 659.6Z" fill="#424242"/>
<path id="_317599472" fill-rule="evenodd" clip-rule="evenodd" d="M915 659.6H895.7L931.2 623.6H950.9L915 659.6Z" fill="#424242"/>
</g>
<g id="small_screen_one_glow">
<path id="_317599688" fill-rule="evenodd" clip-rule="evenodd" d="M679.2 659.6H672.7L708.5 623.6H715.7L679.2 659.6Z" fill="#424242"/>
<path id="_317598248" fill-rule="evenodd" clip-rule="evenodd" d="M705 659.6H685.7L721.2 623.6H740.9L705 659.6Z" fill="#424242"/>
</g>
<g id="tertiary_screen_glow">
<path id="_317598728" fill-rule="evenodd" clip-rule="evenodd" d="M863 228.9L849.2 228.8L692 386.2H706.2L863 228.9Z" fill="#424242"/>
<path id="_317598824" fill-rule="evenodd" clip-rule="evenodd" d="M931.2 228.9L876.4 228.8L719.2 386.2H774.3L931.2 228.9Z" fill="#424242"/>
<path id="_317598512" fill-rule="evenodd" clip-rule="evenodd" d="M975.6 228.9L947.3 228.8L790 386.2H818.7L975.6 228.9Z" fill="#424242"/>
</g>
<g id="primary_screen_glow">
<path id="_202166936" fill-rule="evenodd" clip-rule="evenodd" d="M333.1 259.7H343.5L153.9 448.9H151C148.8 448.9 146.7 448.6 144.6 448.2L333.1 259.7Z" fill="#F8FFFF"/>
<path id="_202165760" fill-rule="evenodd" clip-rule="evenodd" d="M267.9 259.7H310L129.2 438.6C125.2 433.7 122.8 427.5 122.8 420.8V404.1L267.9 259.7Z" fill="#F8FFFF"/>
<path id="_202172912" fill-rule="evenodd" clip-rule="evenodd" d="M226 259.7L122.8 360.7V393.1L255.4 259.7H226V259.7Z" fill="#E8FFFF"/>
</g>
</g>
<path id="Vector" fill-rule="evenodd" clip-rule="evenodd" d="M1030.1 175.5H879.8C860.2 175.5 856.9 164.4 856.9 153.3C856.9 127.6 830.3 105.1 803.3 105.1H597.3V37.4C597.2 13 583.6 0 560.1 0H64.1C27.3 0 0 15.3 0 57V668.4C0 696.9 25.5 720 55.4 720H1034.2C1058.1 720 1085.9 694.2 1085.9 670.3V230.8C1085.8 199.3 1063 175.5 1030.1 175.5ZM312.8 647.3C312.8 651.2 309.6 654.3 305.8 654.3H148.9C145 654.3 141.9 651.1 141.9 647.3V601.5C141.9 597.6 145.1 594.5 148.9 594.5H305.7C309.6 594.5 312.7 597.7 312.7 601.5V647.3H312.8ZM401.9 420.8C401.9 436.3 389.2 449 373.7 449H151C135.5 449 122.8 436.3 122.8 420.8V287.8C122.8 272.3 135.5 259.6 151 259.6H373.7C389.2 259.6 401.9 272.3 401.9 287.8V420.8V420.8ZM782 656.2C782 658.1 780.5 659.6 778.6 659.6H669.3C667.4 659.6 665.9 658.1 665.9 656.2V627C665.9 625.1 667.4 623.6 669.3 623.6H778.6C780.5 623.6 782 625.1 782 627V656.2V656.2ZM981.3 656.2C981.3 658.1 979.8 659.6 977.9 659.6H868.7C867.8 659.6 866.9 659.2 866.3 658.6C865.7 658 865.3 657.1 865.3 656.2V627C865.3 625.1 866.8 623.6 868.7 623.6H978C979.9 623.6 981.4 625.1 981.4 627V656.2H981.3ZM1012.7 357.2C1012.7 375 1004.9 386.2 977 386.2H672C644 386.2 634.3 375.1 634.3 357.2V256.2C634.3 238.4 644.4 228.8 672.4 228.8H975.9C1003.9 228.8 1012.7 238.3 1012.7 256.2V357.2Z" fill="#323232"/>
<path id="Vector_2" fill-rule="evenodd" clip-rule="evenodd" d="M1026.4 194.6H876.4C854.7 194.6 840.7 176.9 840.7 160.4C840.7 143.5 830.4 123.3 800.8 123.3H595.5V701.9H1025.9C1044.9 701.9 1067.8 695 1067.8 666.9V228.9C1067.8 203.4 1053.3 194.6 1026.4 194.6ZM782 656.2C782 658.1 780.5 659.6 778.6 659.6H669.3C667.4 659.6 665.9 658.1 665.9 656.2V627C665.9 625.1 667.4 623.6 669.3 623.6H778.6C780.5 623.6 782 625.1 782 627V656.2V656.2ZM981.3 656.2C981.3 658.1 979.8 659.6 977.9 659.6H868.7C867.8 659.6 866.9 659.2 866.3 658.6C865.7 658 865.3 657.1 865.3 656.2V627C865.3 625.1 866.8 623.6 868.7 623.6H978C979.9 623.6 981.4 625.1 981.4 627V656.2H981.3ZM1012.7 357.2C1012.7 375 1004.9 386.2 977 386.2H672C644 386.2 634.3 375.1 634.3 357.2V256.2C634.3 238.4 644.4 228.8 672.4 228.8H975.9C1003.9 228.8 1012.7 238.3 1012.7 256.2V357.2Z" fill="#8C271E"/>
<path id="Vector_3" fill-rule="evenodd" clip-rule="evenodd" d="M1050.6 211.6C1045.4 206.9 1037 205.2 1024.3 205.2H875.5C864.9 205.2 854 200.2 845.6 193.1C836.7 185.7 830.6 175.9 830.6 167.3C830.6 159.4 829.2 150.9 824.3 144.6C819.5 138.3 811.2 133.9 797.4 133.9H605.9V691.5H1024.5C1033.4 691.5 1041.9 690.5 1048 686.2C1054 681.9 1057.9 674.4 1057.9 661.3V235.8C1057.9 223.9 1055.8 216.2 1050.6 211.6ZM782 656.2C782 658.1 780.5 659.6 778.6 659.6H669.3C667.4 659.6 665.9 658.1 665.9 656.2V627C665.9 625.1 667.4 623.6 669.3 623.6H778.6C780.5 623.6 782 625.1 782 627V656.2V656.2ZM981.3 656.2C981.3 658.1 979.8 659.6 977.9 659.6H868.7C867.8 659.6 866.9 659.2 866.3 658.6C865.7 658 865.3 657.1 865.3 656.2V627C865.3 625.1 866.8 623.6 868.7 623.6H978C979.9 623.6 981.4 625.1 981.4 627V656.2H981.3ZM1012.7 357.2C1012.7 375 1004.9 386.2 977 386.2H672C644 386.2 634.3 375.1 634.3 357.2V256.2C634.3 238.4 644.4 228.8 672.4 228.8H975.9C1003.9 228.8 1012.7 238.3 1012.7 256.2V357.2Z" fill="#DE3D2B"/>
<path id="Vector_4" fill-rule="evenodd" clip-rule="evenodd" d="M285.3 123.3C255.7 123.3 245.4 143.5 245.4 160.4C245.4 176.9 231.4 194.6 209.7 194.6H59.7C32.8 194.6 18.2 203.4 18.2 228.9V666.9C18.2 695.1 41.1 701.9 60.1 701.9H490.5V123.3H285.3ZM312.8 647.3C312.8 651.2 309.6 654.3 305.8 654.3H148.9C145 654.3 141.9 651.1 141.9 647.3V601.5C141.9 597.6 145.1 594.5 148.9 594.5H305.7C309.6 594.5 312.7 597.7 312.7 601.5V647.3H312.8ZM401.9 420.8C401.9 436.3 389.2 449 373.7 449H151C135.5 449 122.8 436.3 122.8 420.8V287.8C122.8 272.3 135.5 259.6 151 259.6H373.7C389.2 259.6 401.9 272.3 401.9 287.8V420.8V420.8Z" fill="#8C271E"/>
<g id="Group">
<path id="Vector_5" fill-rule="evenodd" clip-rule="evenodd" d="M289.3 134C275.5 134 267.2 138.4 262.4 144.7C257.5 151.1 256.1 159.5 256.1 167.4C256.1 176 250 185.8 241.1 193.2C232.7 200.2 221.8 205.3 211.2 205.3H62.5C49.9 205.3 41.4 207.1 36.2 211.7C31 216.3 28.9 224 28.9 235.9V661.2C28.9 674.3 32.8 681.9 38.8 686.1C44.9 690.4 53.3 691.5 62.3 691.5H480.9V134H289.3ZM312.8 647.3C312.8 651.2 309.6 654.3 305.8 654.3H148.9C145 654.3 141.9 651.1 141.9 647.3V601.5C141.9 597.6 145.1 594.5 148.9 594.5H305.7C309.6 594.5 312.7 597.7 312.7 601.5V647.3H312.8ZM401.9 420.8C401.9 436.3 389.2 449 373.7 449H151C135.5 449 122.8 436.3 122.8 420.8V287.8C122.8 272.3 135.5 259.6 151 259.6H373.7C389.2 259.6 401.9 272.3 401.9 287.8V420.8V420.8Z" fill="#DE3D2B"/>
<path id="Vector_6" fill-rule="evenodd" clip-rule="evenodd" d="M289.3 134C275.5 134 267.2 138.4 262.4 144.7C257.5 151.1 256.1 159.5 256.1 167.4C256.1 176 250 185.8 241.1 193.2C232.7 200.2 221.8 205.3 211.2 205.3H62.5C49.9 205.3 41.4 207.1 36.2 211.7C31 216.3 28.9 224 28.9 235.9V661.2C28.9 674.3 32.8 681.9 38.8 686.1C44.9 690.4 53.3 691.5 62.3 691.5H480.9V134H289.3ZM312.8 647.3C312.8 651.2 309.6 654.3 305.8 654.3H148.9C145 654.3 141.9 651.1 141.9 647.3V601.5C141.9 597.6 145.1 594.5 148.9 594.5H305.7C309.6 594.5 312.7 597.7 312.7 601.5V647.3H312.8ZM401.9 420.8C401.9 436.3 389.2 449 373.7 449H151C135.5 449 122.8 436.3 122.8 420.8V287.8C122.8 272.3 135.5 259.6 151 259.6H373.7C389.2 259.6 401.9 272.3 401.9 287.8V420.8V420.8Z" fill="#DE3D2B"/>
<path id="Vector_7" fill-rule="evenodd" clip-rule="evenodd" d="M289.3 134C275.5 134 267.2 138.4 262.4 144.7C257.5 151.1 256.1 159.5 256.1 167.4C256.1 176 250 185.8 241.1 193.2C232.7 200.2 221.8 205.3 211.2 205.3H62.5C49.9 205.3 41.4 207.1 36.2 211.7C31 216.3 28.9 224 28.9 235.9V661.2C28.9 674.3 32.8 681.9 38.8 686.1C44.9 690.4 53.3 691.5 62.3 691.5H480.9V134H289.3ZM312.8 647.3C312.8 651.2 309.6 654.3 305.8 654.3H148.9C145 654.3 141.9 651.1 141.9 647.3V601.5C141.9 597.6 145.1 594.5 148.9 594.5H305.7C309.6 594.5 312.7 597.7 312.7 601.5V647.3H312.8ZM401.9 420.8C401.9 436.3 389.2 449 373.7 449H151C135.5 449 122.8 436.3 122.8 420.8V287.8C122.8 272.3 135.5 259.6 151 259.6H373.7C389.2 259.6 401.9 272.3 401.9 287.8V420.8V420.8Z" fill="#DE3D2B"/>
<path id="Vector_8" fill-rule="evenodd" clip-rule="evenodd" d="M289.3 134C275.5 134 267.2 138.4 262.4 144.7C257.5 151.1 256.1 159.5 256.1 167.4C256.1 176 250 185.8 241.1 193.2C232.7 200.2 221.8 205.3 211.2 205.3H62.5C49.9 205.3 41.4 207.1 36.2 211.7C31 216.3 28.9 224 28.9 235.9V661.2C28.9 674.3 32.8 681.9 38.8 686.1C44.9 690.4 53.3 691.5 62.3 691.5H480.9V134H289.3ZM312.8 647.3C312.8 651.2 309.6 654.3 305.8 654.3H148.9C145 654.3 141.9 651.1 141.9 647.3V601.5C141.9 597.6 145.1 594.5 148.9 594.5H305.7C309.6 594.5 312.7 597.7 312.7 601.5V647.3H312.8ZM401.9 420.8C401.9 436.3 389.2 449 373.7 449H151C135.5 449 122.8 436.3 122.8 420.8V287.8C122.8 272.3 135.5 259.6 151 259.6H373.7C389.2 259.6 401.9 272.3 401.9 287.8V420.8V420.8Z" fill="#DE3D2B"/>
<path id="Vector_9" fill-rule="evenodd" clip-rule="evenodd" d="M289.3 134C275.5 134 267.2 138.4 262.4 144.7C257.5 151.1 256.1 159.5 256.1 167.4C256.1 176 250 185.8 241.1 193.2C232.7 200.2 221.8 205.3 211.2 205.3H62.5C49.9 205.3 41.4 207.1 36.2 211.7C31 216.3 28.9 224 28.9 235.9V661.2C28.9 674.3 32.8 681.9 38.8 686.1C44.9 690.4 53.3 691.5 62.3 691.5H480.9V134H289.3ZM312.8 647.3C312.8 651.2 309.6 654.3 305.8 654.3H148.9C145 654.3 141.9 651.1 141.9 647.3V601.5C141.9 597.6 145.1 594.5 148.9 594.5H305.7C309.6 594.5 312.7 597.7 312.7 601.5V647.3H312.8ZM401.9 420.8C401.9 436.3 389.2 449 373.7 449H151C135.5 449 122.8 436.3 122.8 420.8V287.8C122.8 272.3 135.5 259.6 151 259.6H373.7C389.2 259.6 401.9 272.3 401.9 287.8V420.8V420.8Z" fill="#DE3D2B"/>
<path id="Vector_10" fill-rule="evenodd" clip-rule="evenodd" d="M289.3 134C275.5 134 267.2 138.4 262.4 144.7C257.5 151.1 256.1 159.5 256.1 167.4C256.1 176 250 185.8 241.1 193.2C232.7 200.2 221.8 205.3 211.2 205.3H62.5C49.9 205.3 41.4 207.1 36.2 211.7C31 216.3 28.9 224 28.9 235.9V661.2C28.9 674.3 32.8 681.9 38.8 686.1C44.9 690.4 53.3 691.5 62.3 691.5H480.9V134H289.3ZM312.8 647.3C312.8 651.2 309.6 654.3 305.8 654.3H148.9C145 654.3 141.9 651.1 141.9 647.3V601.5C141.9 597.6 145.1 594.5 148.9 594.5H305.7C309.6 594.5 312.7 597.7 312.7 601.5V647.3H312.8ZM401.9 420.8C401.9 436.3 389.2 449 373.7 449H151C135.5 449 122.8 436.3 122.8 420.8V287.8C122.8 272.3 135.5 259.6 151 259.6H373.7C389.2 259.6 401.9 272.3 401.9 287.8V420.8V420.8Z" fill="#DE3D2B"/>
<path id="Vector_11" fill-rule="evenodd" clip-rule="evenodd" d="M289.3 134C275.5 134 267.2 138.4 262.4 144.7C257.5 151.1 256.1 159.5 256.1 167.4C256.1 176 250 185.8 241.1 193.2C232.7 200.2 221.8 205.3 211.2 205.3H62.5C49.9 205.3 41.4 207.1 36.2 211.7C31 216.3 28.9 224 28.9 235.9V661.2C28.9 674.3 32.8 681.9 38.8 686.1C44.9 690.4 53.3 691.5 62.3 691.5H480.9V134H289.3ZM312.8 647.3C312.8 651.2 309.6 654.3 305.8 654.3H148.9C145 654.3 141.9 651.1 141.9 647.3V601.5C141.9 597.6 145.1 594.5 148.9 594.5H305.7C309.6 594.5 312.7 597.7 312.7 601.5V647.3H312.8ZM401.9 420.8C401.9 436.3 389.2 449 373.7 449H151C135.5 449 122.8 436.3 122.8 420.8V287.8C122.8 272.3 135.5 259.6 151 259.6H373.7C389.2 259.6 401.9 272.3 401.9 287.8V420.8V420.8Z" fill="#DE3D2B"/>
<path id="Vector_12" fill-rule="evenodd" clip-rule="evenodd" d="M289.3 134C275.5 134 267.2 138.4 262.4 144.7C257.5 151.1 256.1 159.5 256.1 167.4C256.1 176 250 185.8 241.1 193.2C232.7 200.2 221.8 205.3 211.2 205.3H62.5C49.9 205.3 41.4 207.1 36.2 211.7C31 216.3 28.9 224 28.9 235.9V661.2C28.9 674.3 32.8 681.9 38.8 686.1C44.9 690.4 53.3 691.5 62.3 691.5H480.9V134H289.3ZM312.8 647.3C312.8 651.2 309.6 654.3 305.8 654.3H148.9C145 654.3 141.9 651.1 141.9 647.3V601.5C141.9 597.6 145.1 594.5 148.9 594.5H305.7C309.6 594.5 312.7 597.7 312.7 601.5V647.3H312.8ZM401.9 420.8C401.9 436.3 389.2 449 373.7 449H151C135.5 449 122.8 436.3 122.8 420.8V287.8C122.8 272.3 135.5 259.6 151 259.6H373.7C389.2 259.6 401.9 272.3 401.9 287.8V420.8V420.8Z" fill="#DE3D2B"/>
<path id="Vector_13" fill-rule="evenodd" clip-rule="evenodd" d="M289.3 134C275.5 134 267.2 138.4 262.4 144.7C257.5 151.1 256.1 159.5 256.1 167.4C256.1 176 250 185.8 241.1 193.2C232.7 200.2 221.8 205.3 211.2 205.3H62.5C49.9 205.3 41.4 207.1 36.2 211.7C31 216.3 28.9 224 28.9 235.9V661.2C28.9 674.3 32.8 681.9 38.8 686.1C44.9 690.4 53.3 691.5 62.3 691.5H480.9V134H289.3ZM312.8 647.3C312.8 651.2 309.6 654.3 305.8 654.3H148.9C145 654.3 141.9 651.1 141.9 647.3V601.5C141.9 597.6 145.1 594.5 148.9 594.5H305.7C309.6 594.5 312.7 597.7 312.7 601.5V647.3H312.8ZM401.9 420.8C401.9 436.3 389.2 449 373.7 449H151C135.5 449 122.8 436.3 122.8 420.8V287.8C122.8 272.3 135.5 259.6 151 259.6H373.7C389.2 259.6 401.9 272.3 401.9 287.8V420.8V420.8Z" fill="#DE3D2B"/>
<path id="Vector_14" fill-rule="evenodd" clip-rule="evenodd" d="M289.3 134C275.5 134 267.2 138.4 262.4 144.7C257.5 151.1 256.1 159.5 256.1 167.4C256.1 176 250 185.8 241.1 193.2C232.7 200.2 221.8 205.3 211.2 205.3H62.5C49.9 205.3 41.4 207.1 36.2 211.7C31 216.3 28.9 224 28.9 235.9V661.2C28.9 674.3 32.8 681.9 38.8 686.1C44.9 690.4 53.3 691.5 62.3 691.5H480.9V134H289.3ZM312.8 647.3C312.8 651.2 309.6 654.3 305.8 654.3H148.9C145 654.3 141.9 651.1 141.9 647.3V601.5C141.9 597.6 145.1 594.5 148.9 594.5H305.7C309.6 594.5 312.7 597.7 312.7 601.5V647.3H312.8ZM401.9 420.8C401.9 436.3 389.2 449 373.7 449H151C135.5 449 122.8 436.3 122.8 420.8V287.8C122.8 272.3 135.5 259.6 151 259.6H373.7C389.2 259.6 401.9 272.3 401.9 287.8V420.8V420.8Z" fill="#DE3D2B"/>
<path id="Vector_15" fill-rule="evenodd" clip-rule="evenodd" d="M289.3 134C275.5 134 267.2 138.4 262.4 144.7C257.5 151.1 256.1 159.5 256.1 167.4C256.1 176 250 185.8 241.1 193.2C232.7 200.2 221.8 205.3 211.2 205.3H62.5C49.9 205.3 41.4 207.1 36.2 211.7C31 216.3 28.9 224 28.9 235.9V661.2C28.9 674.3 32.8 681.9 38.8 686.1C44.9 690.4 53.3 691.5 62.3 691.5H480.9V134H289.3ZM312.8 647.3C312.8 651.2 309.6 654.3 305.8 654.3H148.9C145 654.3 141.9 651.1 141.9 647.3V601.5C141.9 597.6 145.1 594.5 148.9 594.5H305.7C309.6 594.5 312.7 597.7 312.7 601.5V647.3H312.8ZM401.9 420.8C401.9 436.3 389.2 449 373.7 449H151C135.5 449 122.8 436.3 122.8 420.8V287.8C122.8 272.3 135.5 259.6 151 259.6H373.7C389.2 259.6 401.9 272.3 401.9 287.8V420.8V420.8Z" fill="#DE3D2B"/>
<path id="Vector_16" fill-rule="evenodd" clip-rule="evenodd" d="M289.3 134C275.5 134 267.2 138.4 262.4 144.7C257.5 151.1 256.1 159.5 256.1 167.4C256.1 176 250 185.8 241.1 193.2C232.7 200.2 221.8 205.3 211.2 205.3H62.5C49.9 205.3 41.4 207.1 36.2 211.7C31 216.3 28.9 224 28.9 235.9V661.2C28.9 674.3 32.8 681.9 38.8 686.1C44.9 690.4 53.3 691.5 62.3 691.5H480.9V134H289.3ZM312.8 647.3C312.8 651.2 309.6 654.3 305.8 654.3H148.9C145 654.3 141.9 651.1 141.9 647.3V601.5C141.9 597.6 145.1 594.5 148.9 594.5H305.7C309.6 594.5 312.7 597.7 312.7 601.5V647.3H312.8ZM401.9 420.8C401.9 436.3 389.2 449 373.7 449H151C135.5 449 122.8 436.3 122.8 420.8V287.8C122.8 272.3 135.5 259.6 151 259.6H373.7C389.2 259.6 401.9 272.3 401.9 287.8V420.8V420.8Z" fill="#DE3D2B"/>
<path id="Vector_17" fill-rule="evenodd" clip-rule="evenodd" d="M289.3 134C275.5 134 267.2 138.4 262.4 144.7C257.5 151.1 256.1 159.5 256.1 167.4C256.1 176 250 185.8 241.1 193.2C232.7 200.2 221.8 205.3 211.2 205.3H62.5C49.9 205.3 41.4 207.1 36.2 211.7C31 216.3 28.9 224 28.9 235.9V661.2C28.9 674.3 32.8 681.9 38.8 686.1C44.9 690.4 53.3 691.5 62.3 691.5H480.9V134H289.3ZM312.8 647.3C312.8 651.2 309.6 654.3 305.8 654.3H148.9C145 654.3 141.9 651.1 141.9 647.3V601.5C141.9 597.6 145.1 594.5 148.9 594.5H305.7C309.6 594.5 312.7 597.7 312.7 601.5V647.3H312.8ZM401.9 420.8C401.9 436.3 389.2 449 373.7 449H151C135.5 449 122.8 436.3 122.8 420.8V287.8C122.8 272.3 135.5 259.6 151 259.6H373.7C389.2 259.6 401.9 272.3 401.9 287.8V420.8V420.8Z" fill="#DE3D2B"/>
</g>
<path id="Vector_18" fill-rule="evenodd" clip-rule="evenodd" d="M400.3 228.1H119.6C84.1 228.1 71.4 248.2 71.4 268.7V417.6C71.4 425.7 71.7 428.8 79 436.1L141.9 499.6C149.2 506.9 151.6 505.3 166.2 505.3H407.3C430.9 505.3 454.1 498.2 454.1 451.9V279.8C454.2 241.8 437 228.1 400.3 228.1ZM401.9 420.8C401.9 436.3 389.2 449 373.7 449H151C135.5 449 122.8 436.3 122.8 420.8V287.8C122.8 272.3 135.5 259.6 151 259.6H373.7C389.2 259.6 401.9 272.3 401.9 287.8V420.8V420.8Z" fill="#C6C6C6"/>
<path id="_317983720" d="M482.1 694.2H62.1C52.7 694.2 43.7 693.1 37 688.3C30.2 683.5 25.9 675.3 25.9 661.1V235.8C25.9 223.1 28.3 214.7 34.1 209.5C39.9 204.3 48.9 202.3 62.3 202.3H211.1C221 202.3 231.3 197.6 239.2 190.9C247.5 184 253.2 175 253.2 167.3C253.2 158.8 254.8 149.8 260.1 142.9C265.4 135.9 274.4 131.1 289.2 131.1H483.6V694.3H482.1V694.2ZM62.1 691.4H480.7V133.8H289.2C275.4 133.8 267.1 138.2 262.3 144.5C257.4 150.9 256 159.3 256 167.2C256 175.8 249.9 185.6 241 193C232.6 200 221.7 205.1 211.1 205.1H62.3C49.7 205.1 41.2 206.9 36 211.5C30.8 216.1 28.7 223.8 28.7 235.7V661C28.7 674.1 32.6 681.7 38.6 685.9C44.8 690.3 53.2 691.4 62.1 691.4Z" fill="black"/>
<path id="_317984392" d="M605.9 691.4H1024.5C1033.4 691.4 1041.9 690.4 1048 686.1C1054 681.8 1057.9 674.3 1057.9 661.2V235.8C1057.9 223.9 1055.8 216.2 1050.6 211.6C1045.4 206.9 1037 205.2 1024.3 205.2H875.5C864.9 205.2 854 200.2 845.6 193.1C836.7 185.7 830.6 175.9 830.6 167.3C830.6 159.4 829.2 150.9 824.3 144.6C819.5 138.3 811.2 133.9 797.4 133.9H605.9V691.4ZM1024.5 694.2H603V131H797.4C812.2 131 821.2 135.8 826.5 142.8C831.8 149.8 833.4 158.8 833.4 167.2C833.4 174.9 839.1 183.9 847.4 190.8C855.4 197.5 865.6 202.2 875.5 202.2H1024.3C1037.6 202.2 1046.7 204.2 1052.5 209.4C1058.3 214.6 1060.7 223 1060.7 235.7V661C1060.7 675.2 1056.3 683.5 1049.6 688.2C1042.8 693.1 1033.9 694.2 1024.5 694.2Z" fill="black"/>
<path id="_317984872" fill-rule="evenodd" clip-rule="evenodd" d="M287.8 108.4H489.4V18.2H63.3C30.1 18.2 18.2 37.3 18.2 57.2V188.6C28.1 181.5 34.4 179.2 55.5 179.2H206.1C233.4 179.2 236.8 161.4 236.8 147.8C236.7 134.1 250 108.4 287.8 108.4Z" fill="#DE3D2B"/>
<path id="_317984512" fill-rule="evenodd" clip-rule="evenodd" d="M250.9 42.5C264.8 42.5 276 53.8 276 67.6C276 81.5 264.7 92.7 250.9 92.7C237.1 92.7 225.8 81.4 225.8 67.6C225.7 53.7 237 42.5 250.9 42.5Z" fill="#323232"/>
<path id="_317984440" fill-rule="evenodd" clip-rule="evenodd" d="M306.5 42.5C320.4 42.5 331.6 53.8 331.6 67.6C331.6 81.5 320.3 92.7 306.5 92.7C292.6 92.7 281.4 81.4 281.4 67.6C281.3 53.7 292.6 42.5 306.5 42.5Z" fill="#323232"/>
<path id="_317984200" fill-rule="evenodd" clip-rule="evenodd" d="M362.1 42.5C376 42.5 387.2 53.8 387.2 67.6C387.2 81.5 375.9 92.7 362.1 92.7C348.2 92.7 337 81.4 337 67.6C337 53.7 348.2 42.5 362.1 42.5Z" fill="#323232"/>
<path id="_317982928" fill-rule="evenodd" clip-rule="evenodd" d="M112.4 33.9C149.1 33.9 178.8 63.6 178.8 100.3C178.8 137 149.1 166.7 112.4 166.7C75.7 166.7 46 137 46 100.3C46 63.6 75.7 33.9 112.4 33.9Z" fill="#323232"/>
<path id="_317983264" fill-rule="evenodd" clip-rule="evenodd" d="M507.7 228.9V123.3C512.4 121.5 517.1 120 521.7 118.9V224.2C517.1 225.3 512.4 226.9 507.7 228.9Z" fill="#DE3D2B"/>
<path id="_317983048" fill-rule="evenodd" clip-rule="evenodd" d="M507.7 488.4V247.5C512.4 245.7 517.1 244.2 521.7 243.1V483.8C517.1 484.9 512.4 486.5 507.7 488.4Z" fill="#DE3D2B"/>
<path id="_317982184" fill-rule="evenodd" clip-rule="evenodd" d="M507.7 611.4V505.8C512.4 504 517.1 502.5 521.7 501.4V606.7C517.1 607.9 512.4 609.4 507.7 611.4Z" fill="#DE3D2B"/>
<path id="_317982520" fill-rule="evenodd" clip-rule="evenodd" d="M507.7 701.9V629C512.4 627.2 517.1 625.7 521.7 624.6V701.9H507.7Z" fill="#DE3D2B"/>
<path id="_317981320" fill-rule="evenodd" clip-rule="evenodd" d="M180.4 462.8C190.7 462.8 199 471.1 199 481.4C199 491.7 190.7 500 180.4 500C170.1 500 161.8 491.7 161.8 481.4C161.9 471.1 170.2 462.8 180.4 462.8Z" fill="#323232"/>
<g id="speaker">
<path id="_317981512" fill-rule="evenodd" clip-rule="evenodd" d="M292.1 465.6H377.3C378.9 465.6 380.3 466.9 380.3 468.6C380.3 470.2 379 471.6 377.3 471.6H292.1C290.5 471.6 289.1 470.3 289.1 468.6C289.1 467 290.4 465.6 292.1 465.6Z" fill="#323232"/>
<path id="_317980816" fill-rule="evenodd" clip-rule="evenodd" d="M292.1 479.6H377.3C378.9 479.6 380.3 480.9 380.3 482.6C380.3 484.2 379 485.6 377.3 485.6H292.1C290.5 485.6 289.1 484.3 289.1 482.6C289.1 480.9 290.4 479.6 292.1 479.6Z" fill="#323232"/>
<path id="_317980768" fill-rule="evenodd" clip-rule="evenodd" d="M292.1 493.3H377.3C378.9 493.3 380.3 494.6 380.3 496.3C380.3 497.9 379 499.3 377.3 499.3H292.1C291.3 499.3 290.6 499 290 498.4C289.4 497.8 289.1 497.1 289.1 496.3C289.1 494.7 290.4 493.3 292.1 493.3Z" fill="#323232"/>
</g>
<g id="main_big_led">
<path id="_317982832" fill-rule="evenodd" clip-rule="evenodd" d="M112.4 51.7C139.3 51.7 161 73.5 161 100.3C161 127.2 139.2 148.9 112.4 148.9C85.5 148.9 63.8 127.1 63.8 100.3C63.8 73.5 85.5 51.7 112.4 51.7Z" fill="#46B5F9"/>
<path id="_317982424" fill-rule="evenodd" clip-rule="evenodd" d="M150.2 69.7C157 78.1 161 88.7 161 100.3C161 127.2 139.2 148.9 112.4 148.9C102 148.9 92.3 145.6 84.4 140C130.9 145.5 155 124.5 150.2 69.7Z" fill="#25779D"/>
<path id="_317982736" fill-rule="evenodd" clip-rule="evenodd" d="M112.4 51.7C127.7 51.7 141.3 58.7 150.2 69.7C101.9 56.6 67.7 86.8 84.4 140.1C71.9 131.3 63.8 116.8 63.8 100.3C63.8 73.5 85.5 51.7 112.4 51.7Z" fill="#9CE3FB"/>
<path id="_317980864" fill-rule="evenodd" clip-rule="evenodd" d="M112.4 51.7C124.4 51.7 135.4 56 143.9 63.3C94.6 44.5 55 83.9 75.8 132.3C68.3 123.8 63.8 112.6 63.8 100.3C63.8 73.5 85.5 51.7 112.4 51.7Z" fill="white"/>
<path id="_317980792" fill-rule="evenodd" clip-rule="evenodd" d="M91 74.2C85.8 74.2 81.5 78.5 81.5 83.7C81.5 88.9 85.8 93.2 91 93.2C96.2 93.2 100.5 88.9 100.5 83.7C100.5 78.4 96.2 74.2 91 74.2Z" fill="#E6F8FE"/>
<path id="_317980936" fill-rule="evenodd" clip-rule="evenodd" d="M107.4 62.6C106.6 62.6 105.8 62.8 105.1 63.1C104.4 63.4 103.7 63.8 103.1 64.4C102.5 65 102.1 65.6 101.8 66.4C101.5 67.1 101.3 67.9 101.3 68.7C101.3 69.5 101.5 70.3 101.8 71C102.1 71.7 102.5 72.4 103.1 73C103.7 73.6 104.3 74 105.1 74.3C105.8 74.6 106.6 74.8 107.4 74.8C108.2 74.8 109 74.6 109.7 74.3C110.4 74 111.1 73.6 111.7 73C112.3 72.4 112.7 71.8 113 71C113.3 70.3 113.5 69.5 113.5 68.7C113.5 67.9 113.3 67.1 113 66.4C112.7 65.7 112.3 65 111.7 64.4C111.1 63.8 110.5 63.4 109.7 63.1C108.9 62.8 108.1 62.6 107.4 62.6Z" fill="#E6F8FE"/>
</g>
<path id="_317980024" fill-rule="evenodd" clip-rule="evenodd" d="M164 58.5C173.3 69.9 178.8 84.5 178.8 100.3C178.8 137 149.1 166.7 112.4 166.7C98.1999 166.7 85 162.2 74.2 154.6C110.2 172.5 137.4 159.7 154 144.7C169.7 130.6 183.6 107.6 164 58.5Z" fill="#232323"/>
<path id="_317980216" fill-rule="evenodd" clip-rule="evenodd" d="M112.4 33.9C128.8 33.9 143.8 39.8 155.4 49.7C89.3 17.6 25.7 78.7 62.4 144C52.2 132.3 46 117 46 100.3C46 63.6 75.7 33.9 112.4 33.9Z" fill="#515151"/>
<path id="_317978344" fill-rule="evenodd" clip-rule="evenodd" d="M489.4 29.7V18.2H63.3C30.1 18.2 18.2 37.3 18.2 57.2V188.6C22 185.9 25.2 183.9 29 182.4V71C29 36.7 31.8 29.6 66.9 29.6H489.4V29.7Z" fill="#F1ABA4"/>
<path id="_317978752" fill-rule="evenodd" clip-rule="evenodd" d="M564.8 101.5C569.5 102.4 574.1 103.6 578.6 105.1V35.9C578.6 24.6 577.4 19.8 564.8 18.6V101.5Z" fill="#DE3D2B"/>
<path id="_317592584" fill-rule="evenodd" clip-rule="evenodd" d="M556.9 18.2H549.2V99.5C554.4 99.8 559.5 100.4 564.7 101.5V18.6C562.5 18.3 559.9 18.2 556.9 18.2Z" fill="#E66B5E"/>
<path id="_317592128" fill-rule="evenodd" clip-rule="evenodd" d="M549.2 18.2H537.3V99.5C541.3 99.3 545.2 99.3 549.2 99.5V18.2Z" fill="#F4BFBA"/>
<path id="_317592824" fill-rule="evenodd" clip-rule="evenodd" d="M537.3 18.2H521.8V101.4C527 100.4 532.1 99.8 537.3 99.5V18.2Z" fill="#E66B5E"/>
<path id="_317592752" fill-rule="evenodd" clip-rule="evenodd" d="M521.8 18.2H507.8V105C512.4 103.5 517.1 102.3 521.8 101.4V18.2Z" fill="#DE3D2B"/>
<path id="_317592416" fill-rule="evenodd" clip-rule="evenodd" d="M521.8 118.9V224.2C526.9 222.9 532.1 222.2 537.3 221.8V116.6C532.1 116.9 527 117.7 521.8 118.9Z" fill="#E66B5E"/>
<path id="_317608256" fill-rule="evenodd" clip-rule="evenodd" d="M578.5 123.3V228.9C573.9 227.1 569.3 225.6 564.7 224.5V118.9C569.4 120.1 574 121.5 578.5 123.3Z" fill="#DE3D2B"/>
<path id="_317607680" fill-rule="evenodd" clip-rule="evenodd" d="M549.2 116.6C554.4 116.9 559.6 117.7 564.7 119V224.5C559.5 223.2 554.3 222.4 549.2 222V116.6Z" fill="#E66B5E"/>
<path id="_317607584" fill-rule="evenodd" clip-rule="evenodd" d="M537.3 116.6C541.3 116.3 545.3 116.3 549.2 116.6V222C545.2 221.7 541.2 221.7 537.3 221.9V116.6Z" fill="#F4BFBA"/>
<path id="_317608064" fill-rule="evenodd" clip-rule="evenodd" d="M564.8 243.1C569.4 244.2 574 245.7 578.6 247.5V488.4C574 486.6 569.4 485.1 564.8 484V243.1Z" fill="#DE3D2B"/>
<path id="_317607800" fill-rule="evenodd" clip-rule="evenodd" d="M549.2 240.8C554.4 241.1 559.6 241.9 564.7 243.2V484C559.5 482.7 554.3 481.9 549.2 481.5V240.8Z" fill="#E66B5E"/>
<path id="_317606864" fill-rule="evenodd" clip-rule="evenodd" d="M537.3 240.7C541.3 240.4 545.3 240.4 549.2 240.7V481.4C545.2 481.1 541.2 481.1 537.3 481.3V240.7Z" fill="#F4BFBA"/>
<path id="_317607224" fill-rule="evenodd" clip-rule="evenodd" d="M521.8 243.1C527 241.9 532.2 241.1 537.3 240.8V481.4C532.1 481.7 526.9 482.5 521.8 483.8V243.1Z" fill="#E66B5E"/>
<path id="_317607128" fill-rule="evenodd" clip-rule="evenodd" d="M564.8 501.5C569.4 502.6 574 504.1 578.6 505.9V611.5C574 609.7 569.4 608.2 564.8 607.1V501.5Z" fill="#DE3D2B"/>
<path id="_317607104" fill-rule="evenodd" clip-rule="evenodd" d="M549.2 499.1C554.4 499.4 559.6 500.2 564.7 501.5V607C559.5 605.7 554.3 604.9 549.2 604.5V499.1Z" fill="#E66B5E"/>
<path id="_317606792" fill-rule="evenodd" clip-rule="evenodd" d="M537.3 499.1C541.3 498.8 545.3 498.8 549.2 499.1V604.5C545.2 604.2 541.2 604.2 537.3 604.4V499.1Z" fill="#F4BFBA"/>
<path id="_317606096" fill-rule="evenodd" clip-rule="evenodd" d="M521.8 501.4C527 500.2 532.2 499.4 537.3 499.1V604.4C532.1 604.7 526.9 605.5 521.8 606.8V501.4Z" fill="#E66B5E"/>
<path id="_317606600" fill-rule="evenodd" clip-rule="evenodd" d="M564.8 624.7C569.4 625.8 574 627.3 578.6 629.1V702H564.8V624.7Z" fill="#DE3D2B"/>
<path id="_317606288" fill-rule="evenodd" clip-rule="evenodd" d="M549.2 622.3C554.4 622.6 559.6 623.4 564.7 624.7V702H549.2V622.3Z" fill="#E66B5E"/>
<path id="_317606312" fill-rule="evenodd" clip-rule="evenodd" d="M537.3 622.3C541.3 622 545.3 622 549.2 622.3V702H537.3V622.3Z" fill="#F4BFBA"/>
<path id="_317605472" fill-rule="evenodd" clip-rule="evenodd" d="M521.8 624.6C527 623.4 532.2 622.6 537.3 622.3V702H521.8V624.6Z" fill="#E66B5E"/>
<path id="_317605400" fill-rule="evenodd" clip-rule="evenodd" d="M82.9 510.1C105.2 510.1 123.3 528.2 123.3 550.5C123.3 572.8 105.2 590.9 82.9 590.9C60.6 590.9 42.5 572.8 42.5 550.5C42.5 528.2 60.6 510.1 82.9 510.1Z" fill="#323232"/>
<path id="_317605016" fill-rule="evenodd" clip-rule="evenodd" d="M67.2 613.9C61.4 613.9 56.7 618.6 56.7 624.4C56.7 630.2 61.4 634.9 67.2 634.9C73 634.9 77.7 630.2 77.7 624.4C77.7 618.6 73 613.9 67.2 613.9Z" fill="#323232"/>
<path id="_317605088" fill-rule="evenodd" clip-rule="evenodd" d="M99.1 613.9C93.3 613.9 88.6 618.6 88.6 624.4C88.6 630.2 93.3 634.9 99.1 634.9C104.9 634.9 109.6 630.2 109.6 624.4C109.6 618.6 104.9 613.9 99.1 613.9Z" fill="#323232"/>
<path id="_317604752" fill-rule="evenodd" clip-rule="evenodd" d="M150.4 533.5H208.5C217.3 533.5 224.5 540.5 224.5 549C224.5 557.5 217.3 564.5 208.5 564.5H150.4C141.6 564.5 134.4 557.5 134.4 549C134.4 540.4 141.6 533.5 150.4 533.5Z" fill="#323232"/>
<path id="_317603960" fill-rule="evenodd" clip-rule="evenodd" d="M253.4 533.5H311.5C320.3 533.5 327.5 540.5 327.5 549C327.5 557.5 320.3 564.5 311.5 564.5H253.4C244.6 564.5 237.4 557.5 237.4 549C237.4 540.4 244.6 533.5 253.4 533.5Z" fill="#323232"/>
<path id="_317602880" fill-rule="evenodd" clip-rule="evenodd" d="M350.3 578.8H361.2C367.4 578.8 368.6 575.4 368.6 572V561.6C368.6 553.1 376.6 542.3 385 542.3H411.3C419.8 542.3 427.7 553.2 427.7 561.6V572C427.7 575.3 428.9 578.8 435.1 578.8H446C454.5 578.8 464.9 587.4 464.9 595.9V620.7C464.9 630.1 459 638.7 448.5 638.7H435.3C430.2 638.7 428.3 642.1 428.3 646.4V657.6C428.3 667.4 418.5 676.3 408.2 676.3H387.8C377.5 676.3 367.7 667.4 367.7 657.6V646.4C367.7 642.1 365.8 638.7 360.7 638.7H347.5C337 638.7 331.1 630.1 331.1 620.7V596C331.4 587.5 341.8 578.8 350.3 578.8Z" fill="#323232"/>
<g id="d_pad">
<path id="_317603432" fill-rule="evenodd" clip-rule="evenodd" d="M354.6 584.4H364.6C370.2 584.4 374.2 578.5 374.2 575.4V565.9C374.2 558.2 378.7 548.9 386.4 548.9H410.4C418.1 548.9 422 558.2 422 565.9V575.4C422 578.4 426.5 584.4 432.1 584.4H442.1C449.8 584.4 458.7 589.5 458.7 597.2V619.8C458.7 628.3 453.9 632.8 444.3 632.8H432.3C427.7 632.8 423.1 639.3 423.1 643.2V653.4C423.1 662.3 417 669.3 407.6 669.3H388.9C379.6 669.3 372.9 662.3 372.9 653.4V643.2C372.9 639.3 368.9 632.8 364.3 632.8H352.3C342.7 632.8 337.4 628.3 337.4 619.8V597.2C337.4 589.4 346.8 584.4 354.6 584.4Z" fill="#686868"/>
<path id="_317602424" fill-rule="evenodd" clip-rule="evenodd" d="M354.6 584.4H364.6C370.2 584.4 374.2 578.5 374.2 575.4V565.9C374.2 558.2 378.7 548.9 386.4 548.9H410.4C415.2 548.9 416.1 553.2 416.3 557C416.3 556.4 415.6 555.2 414 555.2H391.1C383 555.2 378.7 561.7 378.7 568.6V581.1C378.7 586.5 372.6 592.5 367.1 592.5H353.3C346 592.5 342.7 597.2 342.7 602.7V623.3C342.7 626 343.3 627.2 344.4 627.6C341.5 627.7 337.6 623.9 337.6 619.7V597.1C337.4 589.4 346.8 584.4 354.6 584.4Z" fill="white"/>
<path id="_317602160" fill-rule="evenodd" clip-rule="evenodd" d="M451.4 586.9C455.5 589.1 458.5 592.7 458.5 597.2V619.8C458.5 628.3 453.7 632.8 444.1 632.8H432.1C427.5 632.8 422.9 639.3 422.9 643.2V653.4C422.9 662.3 416.8 669.3 407.4 669.3H388.9C382 669.3 376.6 665.5 374.2 660C375.1 661.8 379.5 663.6 382.6 663.6H403.1C410.5 663.6 416.3 657.4 416.3 649.7V638.3C416.3 632.2 424.1 626.5 430.2 626.5H442C448 626.5 453.9 619.2 453.9 613.2V594.7C453.9 591.9 452.9 588.2 451.4 586.9Z" fill="#292929"/>
<path id="_317602328" fill-rule="evenodd" clip-rule="evenodd" d="M372.9 642.6C372.5 638.7 368.7 632.8 364.3 632.8H352.3C342.7 632.8 337.4 628.3 337.4 619.8C337.4 623.8 340.7 627.7 344.2 627.7H360.6C367.1 627.7 372.4 632.8 372.9 642.6Z" fill="#292929"/>
<path id="_317602712" fill-rule="evenodd" clip-rule="evenodd" d="M412.4 549.2C418.5 550.2 421.8 559 421.8 566V575.5C421.8 578.5 426.3 584.5 431.9 584.5C419 584.5 416 576.3 416 562.3C416 555.8 416.9 551.9 412.4 549.2Z" fill="#292929"/>
<path id="d_pad_up" fill-rule="evenodd" clip-rule="evenodd" d="M400 562L407.2 574.4C408.5 576.7 406.7 579.1 404.2 579.1H392.6C389.7 579.1 387.5 576.7 389.1 574L396.1 562C396.9 560.5 398.5 559.5 400 562Z" fill="#404040"/>
<path id="d_pad_right" fill-rule="evenodd" clip-rule="evenodd" d="M444.7 610.3L432.3 617.5C430 618.8 427.6 617 427.6 614.5V602.9C427.6 600 430 597.8 432.7 599.4L444.7 606.4C446.2 607.2 447.2 608.8 444.7 610.3Z" fill="#404040"/>
<path id="d_pad_down" fill-rule="evenodd" clip-rule="evenodd" d="M396.4 655L389.2 642.6C387.9 640.3 389.7 637.9 392.2 637.9H403.9C406.8 637.9 409 640.3 407.4 643L400.4 655C399.5 656.4 397.9 657.5 396.4 655Z" fill="#404040"/>
<path id="d_pad_left" fill-rule="evenodd" clip-rule="evenodd" d="M351.7 606.7L364.1 599.5C366.4 598.2 368.8 600 368.8 602.5V614.1C368.8 617 366.4 619.2 363.7 617.6L351.7 610.6C350.2 609.8 349.2 608.2 351.7 606.7Z" fill="#404040"/>
<ellipse id="d_pad_left_clickable_area" cx="357.4" cy="609" rx="21.5" ry="21" fill="#D9D9D9" fill-opacity="0.01"/>
<ellipse id="d_pad_right_clickable_area" cx="439.4" cy="609" rx="21.5" ry="21" fill="#D9D9D9" fill-opacity="0.01"/>
<ellipse id="d_pad_down_clickable_area" cx="397.9" cy="649.5" rx="21" ry="21.5" fill="#D9D9D9" fill-opacity="0.01"/>
<ellipse id="d_pad_up_clickable_area" cx="397.9" cy="567.5" rx="21" ry="21.5" fill="#D9D9D9" fill-opacity="0.01"/>
</g>
<path id="_317600936" fill-rule="evenodd" clip-rule="evenodd" d="M978.2 548.3C992.1 548.3 1003.3 559.6 1003.3 573.4C1003.3 587.3 992 598.5 978.2 598.5C964.4 598.5 953.1 587.2 953.1 573.4C953.1 559.5 964.3 548.3 978.2 548.3Z" fill="#323232"/>
<g id="btn_orange">
<path id="btn_orange_shadow" fill-rule="evenodd" clip-rule="evenodd" d="M993 561.6C995.7 565 997.1 569.1 997.1 573.4C997.1 583.9 988.6 592.3 978.2 592.3C974 592.3 969.9 590.9 966.6 588.4C983.3 594.9 998.9 581.8 993 561.6Z" fill="#996107"/>
<g id="btn_orange_clickable">
<path id="btn_orange_top" fill-rule="evenodd" clip-rule="evenodd" d="M978.2 554.5C988.7 554.5 997.1 563 997.1 573.4C997.1 583.9 988.6 592.3 978.2 592.3C967.7 592.3 959.3 583.8 959.3 573.4C959.3 563 967.8 554.5 978.2 554.5Z" fill="#FFA608"/>
<path id="btn_orange_shine" fill-rule="evenodd" clip-rule="evenodd" d="M978.2 554.5C984.2 554.5 989.5 557.3 993 561.6C974.6 556.1 959 566.3 966.6 588.4C962.1 584.9 959.2 579.5 959.2 573.4C959.3 563 967.8 554.5 978.2 554.5Z" fill="white"/>
</g>
</g>
<path id="_317599832" fill-rule="evenodd" clip-rule="evenodd" d="M693.2 512.8C687.4 512.8 682.7 517.5 682.7 523.3C682.7 529.1 687.4 533.8 693.2 533.8C699 533.8 703.7 529.1 703.7 523.3C703.7 517.5 699 512.8 693.2 512.8Z" fill="#2C2C2C"/>
<path id="_317600408" fill-rule="evenodd" clip-rule="evenodd" d="M734.9 512.8C729.1 512.8 724.4 517.5 724.4 523.3C724.4 529.1 729.1 533.8 734.9 533.8C740.7 533.8 745.4 529.1 745.4 523.3C745.4 517.5 740.7 512.8 734.9 512.8Z" fill="#2C2C2C"/>
<path id="_317600144" fill-rule="evenodd" clip-rule="evenodd" d="M884.7 518.9H914.7C917 518.9 918.8 520.7 918.8 523C918.8 525.3 917 527.1 914.7 527.1H884.7C882.4 527.1 880.6 525.3 880.6 523C880.6 520.7 882.4 518.9 884.7 518.9Z" fill="#323232"/>
<path id="_317600456" fill-rule="evenodd" clip-rule="evenodd" d="M962.7 518.9H992.7C995 518.9 996.8 520.7 996.8 523C996.8 525.3 995 527.1 992.7 527.1H962.7C960.4 527.1 958.6 525.3 958.6 523C958.6 520.7 960.5 518.9 962.7 518.9Z" fill="#323232"/>
<path id="btn_celeste_frame" fill-rule="evenodd" clip-rule="evenodd" d="M630.2 405H1010C1016.2 405 1021.3 410.1 1021.3 416.3V489.1C1021.3 495.3 1016.2 500.4 1010 500.4H630.2C624 500.4 618.9 495.3 618.9 489.1V416.3C618.9 410.1 624 405 630.2 405Z" fill="#323232"/>
<path id="seconday_arrow_frame" fill-rule="evenodd" clip-rule="evenodd" d="M640.7 548.4H806C811.6 548.4 816.1 552.4 816.1 558V588.2C816.1 593.8 811.5 598.3 806 598.3H640.7C635.1 598.3 630.6 593.7 630.6 588.2V558C630.6 552.4 635.1 548.4 640.7 548.4Z" fill="#323232"/>
<g id="secondary_left_arrow">
<path id="_317594720" fill-rule="evenodd" clip-rule="evenodd" d="M644.4 553C640.1 553 636.5 556.5 636.5 560.9V584.1C636.5 588.4 640 592 644.4 592H718C720.4 592 721.5 590.3 721.5 588.1V557C721.5 554.8 720.4 553.1 718 553.1H644.4V553Z" fill="#686868"/>
<path id="_317594288" fill-rule="evenodd" clip-rule="evenodd" d="M636.6 584.9C637 588.9 640.4 592 644.4 592H718C720.4 592 721.5 590.3 721.5 588.1V557C721.5 555.1 720.7 553.6 718.9 553.2C719.5 553.4 720.1 555 720.1 558.3V585.5C720.1 586 719.5 586.7 719 586.7H638.2C637.4 586.6 636.7 585.5 636.6 584.9Z" fill="#292929"/>
<path id="_317594072" fill-rule="evenodd" clip-rule="evenodd" d="M644.4 553C640.1 553 636.5 556.5 636.5 560.9V584.1C636.5 588.4 640 592 644.4 592H646.5C644.8 591 644.5 588 644.5 585.9V569.5C644.5 564.8 645.9 562.3 651.9 562.3H721.5V557C721.5 554.8 720.4 553.1 718 553.1H644.4V553Z" fill="white"/>
<path id="_317593784" fill-rule="evenodd" clip-rule="evenodd" d="M683.8 564.3C682.3 564.3 679.8 566.4 676.8 568.2C674.3 569.7 672.6 571 672.6 572.4C672.6 573.8 674.2 575.1 676.8 576.6C679.8 578.4 682.3 580.5 683.8 580.5C685.7 580.5 687.2 579 687.2 577.1V567.7C687.2 565.8 685.7 564.3 683.8 564.3Z" fill="#323232"/>
</g>
<g id="secondary_right_arrow">
<path id="_317593616" fill-rule="evenodd" clip-rule="evenodd" d="M802.3 553C806.6 553 810.2 556.5 810.2 560.9V584.1C810.2 588.4 806.7 592 802.3 592H728.7C726.3 592 725.2 590.3 725.2 588.1V557C725.2 554.8 726.3 553.1 728.7 553.1H802.3V553Z" fill="#686868"/>
<path id="_317594192" fill-rule="evenodd" clip-rule="evenodd" d="M802.3 553C806.6 553 810.2 556.5 810.2 560.9V584.1C810.2 588.4 806.7 592 802.3 592H728.7C726.3 592 725.2 590.3 725.2 588.1V586.6H792.2C800.9 586.6 803.4 583.4 803.4 578.9V557.2C803.4 555.3 801.6 553.2 799.6 553.1H802.3V553Z" fill="#292929"/>
<path id="_317593160" fill-rule="evenodd" clip-rule="evenodd" d="M802.3 553C806.6 553 810.2 556.5 810.2 560.9V562.4H725.3V557C725.3 554.8 726.4 553.1 728.8 553.1H802.3V553Z" fill="white"/>
<path id="_317593592" fill-rule="evenodd" clip-rule="evenodd" d="M762.8 564.3C764.3 564.3 766.8 566.4 769.8 568.2C772.3 569.7 774 571 774 572.4C774 573.8 772.4 575.1 769.8 576.6C766.8 578.4 764.3 580.5 762.8 580.5C761.9 580.5 761 580.1 760.4 579.5C759.8 578.9 759.4 578 759.4 577.1V567.7C759.5 565.8 761 564.3 762.8 564.3Z" fill="#323232"/>
</g>
<g id="primary_screen_red_button">
<path id="_317981776" fill-rule="evenodd" clip-rule="evenodd" d="M180.4 466.8C188.5 466.8 195 473.3 195 481.4C195 489.4 188.5 496 180.4 496C172.3 496 165.8 489.5 165.8 481.4C165.9 473.4 172.4 466.8 180.4 466.8Z" fill="#DE3D2B"/>
<path id="_317981704" fill-rule="evenodd" clip-rule="evenodd" d="M193.4 474.7C194.5 476.8 195 479.1 195 481.4C195 489.5 188.5 496 180.4 496C177 496 173.7 494.8 171 492.6C187.1 496.8 193.2 489.3 193.4 474.7Z" fill="#701F19"/>
<path id="_317593136" fill-rule="evenodd" clip-rule="evenodd" d="M180.4 466.8C184.7 466.8 188.6 468.7 191.3 471.7C174 469.1 168.3 475.6 169.9 491.5C167.3 488.8 165.8 485.2 165.8 481.4C165.9 473.4 172.4 466.8 180.4 466.8Z" fill="white"/>
</g>
<g id="main_light_blue_button">
<path id="_317605376" fill-rule="evenodd" clip-rule="evenodd" d="M82.9 520.3C99.6 520.3 113.1 533.8 113.1 550.5C113.1 567.2 99.6 580.7 82.9 580.7C66.2 580.7 52.7 567.2 52.7 550.5C52.7 533.8 66.2 520.3 82.9 520.3Z" fill="#46B5F9"/>
<path id="_317605664" fill-rule="evenodd" clip-rule="evenodd" d="M104.2 529.1C109.7 534.6 113.1 542.1 113.1 550.5C113.1 567.2 99.6 580.7 82.9 580.7C70.9 580.7 63.3 573.4 62.9 573.1C62.1 571.3 61.4 569.5 60.7 567.7C71.4 576.9 89.0999 576.4 98.5999 567.5C109.4 557.4 111 538.7 99.8 527.4C101.3 527.9 102.8 528.5 104.2 529.1Z" fill="#043942"/>
<path id="_317605640" fill-rule="evenodd" clip-rule="evenodd" d="M99.7999 527.4C112.5 556.4 87.8999 579.1 60.7999 567.6C60.7999 567.8 61.7999 568.4 62.2999 568.8C73.0999 576.7 89.5999 575.9 98.5999 567.4C109.2 557.6 110.9 539.4 100.5 528.1C100.2 527.9 99.9999 527.5 99.7999 527.4Z" fill="#25779D"/>
<path id="_317592920" fill-rule="evenodd" clip-rule="evenodd" d="M82.9 520.3C91.2 520.3 98.8 523.7 104.3 529.1C72.2 515.4 47 537.6 63 573.1C56.7 567.6 52.8 559.5 52.8 550.5C52.7 533.8 66.2 520.3 82.9 520.3Z" fill="white"/>
</g>
<g id="primary_screen_under_left_button">
<g id="Group_7">
<path id="_317604968" fill-rule="evenodd" clip-rule="evenodd" d="M153.7 539H203.6C211.1 539 217.3 543.4 217.3 548.9C217.3 554.3 211.1 558.8 203.6 558.8H153.7C146.2 558.8 140 554.4 140 548.9C140 543.5 146.2 539 153.7 539Z" fill="#39B348"/>
<path id="_317604248" fill-rule="evenodd" clip-rule="evenodd" d="M213.2 541.8C215.8 543.6 217.4 546.1 217.4 548.9C217.4 554.3 211.2 558.8 203.7 558.8H153.8C152.1 558.8 150.5 558.6 149 558.2L146.3 553.5H209.4C213.6 553.5 215.4 550.7 214.1 545.3L213.2 541.8Z" fill="#155E1C"/>
<path id="_317593304" fill-rule="evenodd" clip-rule="evenodd" d="M153.7 539H203.6C207.3 539 210.6 540.1 213.1 541.8L213.9 545.2H150.7C144.5 545.2 143.2 548.3 146.1 553.4L148.8 558.1C143.6 556.7 139.8 553.1 139.8 548.8C140 543.5 146.2 539 153.7 539Z" fill="white"/>
</g>
</g>
<g id="primary_screen_under_right_button">
<path id="_317603888" fill-rule="evenodd" clip-rule="evenodd" d="M256.8 539H306.7C314.2 539 320.4 543.4 320.4 548.9C320.4 554.3 314.2 558.8 306.7 558.8H256.8C249.3 558.8 243.1 554.4 243.1 548.9C243 543.5 249.2 539 256.8 539Z" fill="#FFA608"/>
<path id="_317603768" fill-rule="evenodd" clip-rule="evenodd" d="M316.2 541.8C318.8 543.6 320.4 546.1 320.4 548.9C320.4 554.3 314.2 558.8 306.7 558.8H256.8C255.2 558.8 253.6 558.6 252 558.2L249.3 553.5H312.4C316.6 553.5 318.4 550.7 317.1 545.3L316.2 541.8Z" fill="#7F5512"/>
<path id="_202170632" fill-rule="evenodd" clip-rule="evenodd" d="M256.8 539H306.7C310.4 539 313.7 540.1 316.2 541.8L317 545.2H253.8C247.6 545.2 246.3 548.3 249.2 553.4L251.9 558.1C246.7 556.7 242.9 553.1 242.9 548.8C243 543.5 249.2 539 256.8 539Z" fill="white"/>
</g>
<path id="main_screen_up_dot_left" fill-rule="evenodd" clip-rule="evenodd" d="M244.9 233.8C244.2 233.8 243.5 233.9 242.9 234.2C242.3 234.5 241.7 234.8 241.2 235.3C240.7 235.8 240.3 236.4 240.1 237C239.8 237.6 239.7 238.3 239.7 239C239.7 239.7 239.8 240.4 240.1 241C240.4 241.6 240.7 242.2 241.2 242.7C241.7 243.2 242.3 243.6 242.9 243.8C243.5 244.1 244.2 244.2 244.9 244.2C246.3 244.2 247.6 243.7 248.6 242.7C249.6 241.7 250.1 240.4 250.1 239C250.1 237.6 249.6 236.3 248.6 235.3C247.6 234.4 246.2 233.8 244.9 233.8Z" fill="#323232"/>
<path id="main_screen_up_dot_right" fill-rule="evenodd" clip-rule="evenodd" d="M280.4 233.8C279.7 233.8 279 233.9 278.4 234.2C277.8 234.5 277.2 234.8 276.7 235.3C276.2 235.8 275.8 236.4 275.6 237C275.3 237.6 275.2 238.3 275.2 239C275.2 240 275.5 241 276.1 241.9C276.7 242.8 277.5 243.4 278.4 243.8C279.3 244.2 280.4 244.3 281.4 244.1C282.4 243.9 283.3 243.4 284.1 242.7C284.8 242 285.3 241.1 285.5 240C285.7 239 285.6 238 285.2 237C284.8 236.1 284.1 235.2 283.3 234.7C282.4 234.1 281.4 233.8 280.4 233.8Z" fill="#323232"/>
<g id="led_green_input">
<path id="Ellipse_2" d="M98.9 633C103.871 633 107.9 628.971 107.9 624C107.9 619.029 103.871 615 98.9 615C93.9295 615 89.9 619.029 89.9 624C89.9 628.971 93.9295 633 98.9 633Z" fill="#26AC44"/>
<path id="Ellipse_1" d="M97.9 632C102.871 632 106.9 627.971 106.9 623C106.9 618.029 102.871 614 97.9 614C92.9295 614 88.9 618.029 88.9 623C88.9 627.971 92.9295 632 97.9 632Z" fill="#4DD61D"/>
<path id="Ellipse_3" d="M97.9 630C101.766 630 104.9 626.866 104.9 623C104.9 619.134 101.766 616 97.9 616C94.034 616 90.9 619.134 90.9 623C90.9 626.866 94.034 630 97.9 630Z" fill="#7FFF52"/>
<path id="Ellipse_4" d="M94.9 622C96.5569 622 97.9 620.657 97.9 619C97.9 617.343 96.5569 616 94.9 616C93.2432 616 91.9 617.343 91.9 619C91.9 620.657 93.2432 622 94.9 622Z" fill="white"/>
</g>
<g id="led_yellow_input">
<path id="Ellipse_5" d="M66.9 633C71.8706 633 75.9 628.971 75.9 624C75.9 619.029 71.8706 615 66.9 615C61.9295 615 57.9 619.029 57.9 624C57.9 628.971 61.9295 633 66.9 633Z" fill="#A9AC26"/>
<path id="Ellipse_6" d="M65.9 632C70.8706 632 74.9 627.971 74.9 623C74.9 618.029 70.8706 614 65.9 614C60.9295 614 56.9 618.029 56.9 623C56.9 627.971 60.9295 632 65.9 632Z" fill="#D2D61D"/>
<path id="Ellipse_7" d="M65.9 630C69.766 630 72.9 626.866 72.9 623C72.9 619.134 69.766 616 65.9 616C62.034 616 58.9 619.134 58.9 623C58.9 626.866 62.034 630 65.9 630Z" fill="#FCFF52"/>
<path id="Ellipse_8" d="M62.9 622C64.5569 622 65.9 620.657 65.9 619C65.9 617.343 64.5569 616 62.9 616C61.2432 616 59.9 617.343 59.9 619C59.9 620.657 61.2432 622 62.9 622Z" fill="white"/>
</g>
<g id="led_green_main">
<path id="Ellipse_5_x5F_2" d="M362.7 91C375.513 91 385.9 80.613 385.9 67.8C385.9 54.987 375.513 44.6 362.7 44.6C349.887 44.6 339.5 54.987 339.5 67.8C339.5 80.613 349.887 91 362.7 91Z" fill="#26AC2B"/>
<path id="Ellipse_6_x5F_2" d="M360.1 88.4C372.913 88.4 383.3 78.013 383.3 65.2C383.3 52.387 372.913 42 360.1 42C347.287 42 336.9 52.387 336.9 65.2C336.9 78.013 347.287 88.4 360.1 88.4Z" fill="#1DD625"/>
<path id="Ellipse_7_x5F_2" d="M360.1 83.3C370.096 83.3 378.2 75.1964 378.2 65.2C378.2 55.2037 370.096 47.1 360.1 47.1C350.104 47.1 342 55.2037 342 65.2C342 75.1964 350.104 83.3 360.1 83.3Z" fill="#52FF63"/>
<path id="Ellipse_8_x5F_2" d="M352.4 62.6C356.653 62.6 360.1 59.1526 360.1 54.9C360.1 50.6474 356.653 47.2 352.4 47.2C348.147 47.2 344.7 50.6474 344.7 54.9C344.7 59.1526 348.147 62.6 352.4 62.6Z" fill="white"/>
</g>
<g id="led_yellow_main">
<path id="Ellipse_5_x5F_3" d="M306.7 91C319.513 91 329.9 80.613 329.9 67.8C329.9 54.987 319.513 44.6 306.7 44.6C293.887 44.6 283.5 54.987 283.5 67.8C283.5 80.613 293.887 91 306.7 91Z" fill="#A9AC26"/>
<path id="Ellipse_6_x5F_3" d="M304.1 88.4C316.913 88.4 327.3 78.013 327.3 65.2C327.3 52.387 316.913 42 304.1 42C291.287 42 280.9 52.387 280.9 65.2C280.9 78.013 291.287 88.4 304.1 88.4Z" fill="#D2D61D"/>
<path id="Ellipse_7_x5F_3" d="M304.1 83.3C314.096 83.3 322.2 75.1964 322.2 65.2C322.2 55.2037 314.096 47.1 304.1 47.1C294.104 47.1 286 55.2037 286 65.2C286 75.1964 294.104 83.3 304.1 83.3Z" fill="#FCFF52"/>
<path id="Ellipse_8_x5F_3" d="M296.4 62.6C300.653 62.6 304.1 59.1526 304.1 54.9C304.1 50.6474 300.653 47.2 296.4 47.2C292.147 47.2 288.7 50.6474 288.7 54.9C288.7 59.1526 292.147 62.6 296.4 62.6Z" fill="white"/>
</g>
<g id="led_red_main">
<path id="Ellipse_5_x5F_4" d="M250.7 91C263.513 91 273.9 80.613 273.9 67.8C273.9 54.987 263.513 44.6 250.7 44.6C237.887 44.6 227.5 54.987 227.5 67.8C227.5 80.613 237.887 91 250.7 91Z" fill="#AC2626"/>
<path id="Ellipse_6_x5F_4" d="M248.1 88.4C260.913 88.4 271.3 78.013 271.3 65.2C271.3 52.387 260.913 42 248.1 42C235.287 42 224.9 52.387 224.9 65.2C224.9 78.013 235.287 88.4 248.1 88.4Z" fill="#D61D1D"/>
<path id="Ellipse_7_x5F_4" d="M248.1 83.3C258.096 83.3 266.2 75.1964 266.2 65.2C266.2 55.2037 258.096 47.1 248.1 47.1C238.104 47.1 230 55.2037 230 65.2C230 75.1964 238.104 83.3 248.1 83.3Z" fill="#FF5252"/>
<path id="Ellipse_8_x5F_4" d="M240.4 62.6C244.653 62.6 248.1 59.1526 248.1 54.9C248.1 50.6474 244.653 47.2 240.4 47.2C236.147 47.2 232.7 50.6474 232.7 54.9C232.7 59.1526 236.147 62.6 240.4 62.6Z" fill="white"/>
</g>
<g id="btn_celeste2">
<path id="Vector_1" d="M709.8 450L706.9 446.9L778 413L779.9 415.9V450H709.8Z" fill="#246C99"/>
<path id="_317598896" fill-rule="evenodd" clip-rule="evenodd" d="M706.9 413H777.9V446.9H706.9V413Z" fill="#46B5F9"/>
<path id="_317598080" fill-rule="evenodd" clip-rule="evenodd" d="M706.9 413H777.9V429H706.9V413Z" fill="white"/>
</g>
<g id="btn_celeste3">
<path id="Vector_1_x5F_2" d="M785.8 450L782.9 446.9L854 413L855.9 415.9V450H785.8Z" fill="#246C99"/>
<path id="_317598896_2" fill-rule="evenodd" clip-rule="evenodd" d="M782.9 413H853.9V446.9H782.9V413Z" fill="#46B5F9"/>
<path id="_317598080_2" fill-rule="evenodd" clip-rule="evenodd" d="M782.9 413H853.9V429H782.9V413Z" fill="white"/>
</g>
<g id="btn_celeste4">
<path id="Vector_1_x5F_3" d="M861.8 450L858.9 446.9L930 413L931.9 415.9V450H861.8Z" fill="#246C99"/>
<path id="_317598896_3" fill-rule="evenodd" clip-rule="evenodd" d="M858.9 413H929.9V446.9H858.9V413Z" fill="#46B5F9"/>
<path id="_317598080_3" fill-rule="evenodd" clip-rule="evenodd" d="M858.9 413H929.9V429H858.9V413Z" fill="white"/>
</g>
<g id="btn_celeste1">
<path id="Vector_1_x5F_4" d="M632.8 450L629.9 446.9L702 413L703.9 415.9V450H632.8Z" fill="#246C99"/>
<path id="_317598896_4" fill-rule="evenodd" clip-rule="evenodd" d="M629.9 413H701.9V446.9H629.9V413Z" fill="#46B5F9"/>
<path id="_317594528" fill-rule="evenodd" clip-rule="evenodd" d="M632.9 447H629.9V413H701.9V428H651.4C637.8 428 636.1 435.6 632.9 447Z" fill="white"/>
</g>
<g id="btn_celeste10">
<path id="Vector_6_2" d="M937.8 493L934.9 489.9L1006 456L1007.9 458.9V493H937.8Z" fill="#246C99"/>
<path id="_317598896_5" fill-rule="evenodd" clip-rule="evenodd" d="M934.9 456H1005.9V489.9H934.9V456Z" fill="#46B5F9"/>
<path id="_317594528_2" fill-rule="evenodd" clip-rule="evenodd" d="M1002.9 456H1005.9V490H934.9V482H984.7C998.1 482 999.8 467.4 1002.9 456Z" fill="#3793CB"/>
</g>
<g id="btn_celeste6">
<path id="Vector_2_2" d="M632.8 493L629.9 489.9L702 456L703.9 458.9V493H632.8Z" fill="#246C99"/>
<path id="_317598896_6" fill-rule="evenodd" clip-rule="evenodd" d="M629.9 456H701.9V489.9H629.9V456Z" fill="#46B5F9"/>
<path id="_317596520" fill-rule="evenodd" clip-rule="evenodd" d="M701.9 482V490H632.9V482H701.9Z" fill="#3793CB"/>
<path id="Rectangle_2" d="M629.9 456H632.9V482H629.9V456Z" fill="white"/>
<path id="Rectangle_3" d="M629.9 482H632.9V490H629.9V482Z" fill="#828282"/>
</g>
<g id="btn_celeste7">
<path id="Vector_3_2" d="M709.8 493L706.9 489.9L778 456L779.9 458.9V493H709.8Z" fill="#246C99"/>
<path id="_317598896_7" fill-rule="evenodd" clip-rule="evenodd" d="M706.9 456H777.9V489.9H706.9V456Z" fill="#46B5F9"/>
<path id="_317596520_2" fill-rule="evenodd" clip-rule="evenodd" d="M777.9 482V490H706.9V482H777.9Z" fill="#3793CB"/>
</g>
<g id="btn_celeste8">
<path id="Vector_4_2" d="M785.8 493L782.9 489.9L854 456L855.9 458.9V493H785.8Z" fill="#246C99"/>
<path id="_317598896_8" fill-rule="evenodd" clip-rule="evenodd" d="M782.9 456H853.9V489.9H782.9V456Z" fill="#46B5F9"/>
<path id="_317596520_3" fill-rule="evenodd" clip-rule="evenodd" d="M853.9 482V490H782.9V482H853.9Z" fill="#3793CB"/>
</g>
<g id="btn_celeste9">
<path id="Vector_5_2" d="M861.8 493L858.9 489.9L930 456L931.9 458.9V493H861.8Z" fill="#246C99"/>
<path id="_317598896_9" fill-rule="evenodd" clip-rule="evenodd" d="M858.9 456H929.9V489.9H858.9V456Z" fill="#46B5F9"/>
<path id="_317596520_4" fill-rule="evenodd" clip-rule="evenodd" d="M929.9 482V490H858.9V482H929.9Z" fill="#3793CB"/>
</g>
<g id="btn_celeste5">
<path id="Vector_7_2" d="M937.8 450L934.9 446.9L1006 413L1007.9 415.9V450H937.8Z" fill="#246C99"/>
<path id="_317598896_10" fill-rule="evenodd" clip-rule="evenodd" d="M934.9 413H1005.9V446.9H934.9V413Z" fill="#46B5F9"/>
<path id="_317598080_4" fill-rule="evenodd" clip-rule="evenodd" d="M934.9 413H1005.9V429H934.9V413Z" fill="white"/>
<path id="Rectangle_4" d="M1002.9 429H1005.9V447H1002.9V429Z" fill="#3793CB"/>
<path id="Rectangle_5" d="M1002.9 413H1005.9V429H1002.9V413Z" fill="#828282"/>
</g>
<path id="Vector_19" fill-rule="evenodd" clip-rule="evenodd" d="M308.3 586.8H146.1C139.3 586.8 133.7 592.4 133.7 599.2V649.7C133.7 656.5 139.3 662.1 146.1 662.1H308.4C315.2 662.1 320.8 656.5 320.8 649.7V599.2C320.7 592.4 315.1 586.8 308.3 586.8ZM312.8 647.3C312.8 651.2 309.6 654.3 305.8 654.3H148.9C145 654.3 141.9 651.1 141.9 647.3V601.5C141.9 597.6 145.1 594.5 148.9 594.5H305.7C309.6 594.5 312.7 597.7 312.7 601.5V647.3H312.8Z" fill="#323232"/>
<path id="Vector_20" fill-rule="evenodd" clip-rule="evenodd" d="M371.5 251.7H153.2C131.1 251.7 113.1 269.7 113.1 291.8V416.8C113.1 438.9 131.1 456.9 153.2 456.9H371.4C393.5 456.9 411.5 438.9 411.5 416.8V291.8C411.6 269.8 393.5 251.7 371.5 251.7ZM401.9 420.8C401.9 436.3 389.2 449 373.7 449H151C135.5 449 122.8 436.3 122.8 420.8V287.8C122.8 272.3 135.5 259.6 151 259.6H373.7C389.2 259.6 401.9 272.3 401.9 287.8V420.8V420.8Z" fill="#323232"/>
<path id="Vector_21" fill-rule="evenodd" clip-rule="evenodd" d="M407 219H113.9C76.6 219 61.6 246 61.6 267.4V420C61.6 428.5 61.9 431.7 69.6 439.4L136.2 506.6C143.8 514.3 146.3 515.6 161.7 515.6H411.6C436.3 515.6 463.7 504.6 463.7 456.1V275.5C463.5 235.7 445.4 219 407 219ZM454.2 451.9C454.2 498.1 430.9 505.3 407.4 505.3H166.2C151.6 505.3 149.2 506.9 141.9 499.6L79 436.1C71.7 428.8 71.4 425.7 71.4 417.6V268.7C71.4 248.3 84.1 228.1 119.6 228.1H400.3C437 228.1 454.2 241.8 454.2 279.8V451.9V451.9Z" fill="#323232"/>
<path id="Vector_22" fill-rule="evenodd" clip-rule="evenodd" d="M985 218.5H664.6C634.8 218.5 622.3 234 622.3 253V360.5C622.3 379.5 632.6 396.1 662.4 396.1H986.7C1016.5 396.1 1024.7 379.4 1024.7 360.5V252.9C1024.7 234 1014.8 218.5 985 218.5ZM1012.7 357.2C1012.7 375 1004.9 386.2 977 386.2H672C644 386.2 634.3 375.1 634.3 357.2V256.2C634.3 238.4 644.4 228.8 672.4 228.8H975.9C1003.9 228.8 1012.7 238.3 1012.7 256.2V357.2Z" fill="#323232"/>
<path id="Vector_23" fill-rule="evenodd" clip-rule="evenodd" d="M779.7 613.3H668.3C661.5 613.3 655.9 618.3 655.9 625.1V657.5C655.9 664.3 661.5 669.9 668.3 669.9H779.7C786.5 669.9 792.1 664.3 792.1 657.5V625.1C792.1 618.3 786.5 613.3 779.7 613.3ZM782 656.2C782 658.1 780.5 659.6 778.6 659.6H669.3C667.4 659.6 665.9 658.1 665.9 656.2V627C665.9 625.1 667.4 623.6 669.3 623.6H778.6C780.5 623.6 782 625.1 782 627V656.2V656.2Z" fill="#323232"/>
<path id="Vector_24" fill-rule="evenodd" clip-rule="evenodd" d="M979 613.3H867.6C860.8 613.3 855.2 618.3 855.2 625.1V657.5C855.2 664.3 860.8 669.9 867.6 669.9H979C985.8 669.9 991.4 664.3 991.4 657.5V625.1C991.4 618.3 985.8 613.3 979 613.3ZM981.3 656.2C981.3 658.1 979.8 659.6 977.9 659.6H868.7C867.8 659.6 866.9 659.2 866.3 658.6C865.7 658 865.3 657.1 865.3 656.2V627C865.3 625.1 866.8 623.6 868.7 623.6H978C979.9 623.6 981.4 625.1 981.4 627V656.2H981.3Z" fill="#323232"/>
</g>
</svg>
