<svg width="550" height="720" viewBox="0 0 550 720" fill="none" xmlns="http://www.w3.org/2000/svg">
<g id="pokedex_cover">
<path id="Vector" fill-rule="evenodd" clip-rule="evenodd" d="M55.9063 175.5H206.493C226.13 175.5 229.436 164.4 229.436 153.3C229.436 127.6 256.087 105.1 283.138 105.1H489.53V37.4C489.63 13 503.257 0 526.801 0H543.433V153.3V377L543.432 455.5L543.432 572L543.433 720H51.7983C27.8528 720 -8.55374e-05 694.2 -8.55374e-05 670.3V230.8C0.100105 199.3 22.9436 175.5 55.9063 175.5Z" fill="#323232"/>
<g id="hinge">
<path id="_317978752" fill-rule="evenodd" clip-rule="evenodd" d="M521.791 101.5C517.082 102.4 512.473 103.6 507.965 105.1V35.9C507.965 24.6 509.167 19.8 521.791 18.6V101.5Z" fill="#DE3D2B"/>
<path id="_317592584" fill-rule="evenodd" clip-rule="evenodd" d="M529.706 18.2H537.421V99.5C532.211 99.8 527.101 100.4 521.891 101.5V18.6C524.096 18.3 526.701 18.2 529.706 18.2Z" fill="#E66B5E"/>
<path id="_317592128" fill-rule="evenodd" clip-rule="evenodd" d="M537.421 18.2H549.344V99.5C545.336 99.3 541.429 99.3 537.421 99.5V18.2Z" fill="#F4BFBA"/>
<path id="_317608256" fill-rule="evenodd" clip-rule="evenodd" d="M508.065 123.3V228.9C512.674 227.1 517.283 225.6 521.891 224.5V118.9C517.182 120.1 512.574 121.5 508.065 123.3Z" fill="#DE3D2B"/>
<path id="_317607680" fill-rule="evenodd" clip-rule="evenodd" d="M537.421 116.6C532.211 116.9 527.001 117.7 521.891 119V224.5C527.101 223.2 532.311 222.4 537.421 222V116.6Z" fill="#E66B5E"/>
<path id="_317607584" fill-rule="evenodd" clip-rule="evenodd" d="M549.344 116.6C545.336 116.3 541.329 116.3 537.421 116.6V222C541.429 221.7 545.436 221.7 549.344 221.9V116.6Z" fill="#F4BFBA"/>
<path id="_317608064" fill-rule="evenodd" clip-rule="evenodd" d="M521.791 243.1C517.182 244.2 512.574 245.7 507.965 247.5V488.4C512.574 486.6 517.182 485.1 521.791 484V243.1Z" fill="#DE3D2B"/>
<path id="_317607800" fill-rule="evenodd" clip-rule="evenodd" d="M537.421 240.8C532.211 241.1 527.001 241.9 521.891 243.2V484C527.101 482.7 532.311 481.9 537.421 481.5V240.8Z" fill="#E66B5E"/>
<path id="_317606864" fill-rule="evenodd" clip-rule="evenodd" d="M549.344 240.7C545.336 240.4 541.329 240.4 537.421 240.7V481.4C541.429 481.1 545.436 481.1 549.344 481.3V240.7Z" fill="#F4BFBA"/>
<path id="_317607128" fill-rule="evenodd" clip-rule="evenodd" d="M521.791 501.5C517.182 502.6 512.574 504.1 507.965 505.9V611.5C512.574 609.7 517.182 608.2 521.791 607.1V501.5Z" fill="#DE3D2B"/>
<path id="_317607104" fill-rule="evenodd" clip-rule="evenodd" d="M537.421 499.1C532.211 499.4 527.001 500.2 521.891 501.5V607C527.101 605.7 532.311 604.9 537.421 604.5V499.1Z" fill="#E66B5E"/>
<path id="_317606792" fill-rule="evenodd" clip-rule="evenodd" d="M549.344 499.1C545.336 498.8 541.329 498.8 537.421 499.1V604.5C541.429 604.2 545.436 604.2 549.344 604.4V499.1Z" fill="#F4BFBA"/>
<path id="_317606600" fill-rule="evenodd" clip-rule="evenodd" d="M521.791 625.7C517.182 626.8 512.574 628.3 507.965 630.1V703H521.791V625.7Z" fill="#DE3D2B"/>
<path id="_317606288" fill-rule="evenodd" clip-rule="evenodd" d="M537.421 622.3C532.211 622.6 527.001 623.4 521.891 624.7V702H537.421V622.3Z" fill="#E66B5E"/>
<path id="_317606312" fill-rule="evenodd" clip-rule="evenodd" d="M549.344 622.3C545.336 622 541.329 622 537.421 622.3V702H549.344V622.3Z" fill="#F4BFBA"/>
</g>
<path id="Vector_2" fill-rule="evenodd" clip-rule="evenodd" d="M59.4614 193.014H209.684C231.416 193.014 245.437 175.24 245.437 158.672C245.437 141.702 255.752 121.418 285.396 121.418H491V702.418H59.9621C40.934 702.418 18 695.489 18 667.273V227.456C18 201.85 32.5215 193.014 59.4614 193.014Z" fill="#8C271E"/>
</g>
</svg>
