<?xml version="1.0" encoding="iso-8859-1"?>
<!-- Generator: Adobe Illustrator 19.0.0, SVG Export Plug-In . SVG Version: 6.00 Build 0)  -->
<svg version="1.1" id="Layer_1" xmlns="http://www.w3.org/2000/svg" xmlns:xlink="http://www.w3.org/1999/xlink" x="0px" y="0px"
	 viewBox="0 0 512 512" style="enable-background:new 0 0 512 512;" xml:space="preserve">
<g>
	<g>
		<circle style="fill:#263A7A;" cx="256" cy="256" r="256"/>
	</g>
	<path style="fill:#121149;" d="M394.333,180.002c-63.743,18.67-154.631,0.964-169.363,81.17
		c-10.14,58.589-37.96,108.33-80.56,140.1l110.716,110.716c0.291,0,0.581,0.01,0.872,0.01c128.212,0,234.406-94.253,253.083-217.248
		L394.333,180.002z"/>
	<g>
		<polygon style="fill:#FFEDB5;" points="369.778,398.222 142.222,398.222 199.111,199.111 312.889,199.111 		"/>
	</g>
	<g>
		<polygon style="fill:#FDE085;" points="312.889,199.111 256.288,199.111 256.288,398.222 369.778,398.222 		"/>
	</g>
	<g>
		<path style="fill:#71E2EF;" d="M194.122,144.815c0-34.175,27.703-61.878,61.878-61.878s61.878,27.703,61.878,61.878H194.122z"/>
	</g>
	<g>
		<path style="fill:#38C6D9;" d="M256.288,82.944v61.871h61.59C317.878,110.737,290.328,83.101,256.288,82.944z"/>
	</g>
	<g>
		<path style="fill:#366695;" d="M119.953,177.449l73.88-36.94h123.756l74.452,37.226c3.543,1.77,3.674,6.79,0.217,8.723
			c-29.529,16.513-139.217,67.362-272.301-0.169C116.324,184.446,116.31,179.271,119.953,177.449z"/>
	</g>
	<g>
		<path style="fill:#2A597F;" d="M392.04,177.736l-74.452-37.226H256.29v79.858c67.486,0.264,117.465-23.561,135.97-33.909
			C395.712,184.527,395.583,179.507,392.04,177.736z"/>
	</g>
	<g>
		<ellipse style="fill:#FEE187;" cx="256" cy="399.084" rx="113.778" ry="14.222"/>
	</g>
	<g>
		<path style="fill:#FFC61B;" d="M369.778,399.084c0-7.842-50.785-14.202-113.49-14.222v28.443
			C318.993,413.286,369.778,406.926,369.778,399.084z"/>
	</g>
</g>
<g>
</g>
<g>
</g>
<g>
</g>
<g>
</g>
<g>
</g>
<g>
</g>
<g>
</g>
<g>
</g>
<g>
</g>
<g>
</g>
<g>
</g>
<g>
</g>
<g>
</g>
<g>
</g>
<g>
</g>
</svg>
